<?xml version="1.0" encoding="utf-8"?>
<svg viewBox="0 0 448 512" xmlns="http://www.w3.org/2000/svg">
  <path d="M 432 80 L 349.59 80 L 315.59 23.3 C 306.911 8.838 291.277 -0.008 274.41 0 L 173.59 0 C 156.73 -0.001 141.106 8.844 132.43 23.3 L 98.41 80 L 16 80 C 7.163 80 0 87.163 0 96 L 0 112 C 0 120.837 7.163 128 16 128 L 32 128 L 32 464 C 32 490.51 53.49 512 80 512 L 368 512 C 394.51 512 416 490.51 416 464 L 416 128 L 432 128 C 440.837 128 448 120.837 448 112 L 448 96 C 448 87.163 440.837 80 432 80 Z M 171.84 50.91 C 172.928 49.099 174.888 47.994 177 48 L 271 48 C 273.109 47.998 275.064 49.102 276.15 50.91 L 293.61 80 L 154.39 80 L 171.84 50.91 Z M 368 464 L 80 464 L 80 128 L 368 128 L 368 464 Z" style="fill: rgb(182, 179, 183);"/>
  <rect x="63.231" y="115.83" width="319.51" height="364.275" style="fill: rgb(182, 179, 183);"/>
  <path d="M 158.543 410.523 L 183.503 410.523 L 183.503 192.923 L 158.543 192.923 L 158.543 410.523 Z" style="stroke-linecap: round; stroke-miterlimit: 1; stroke-linejoin: round; stroke-width: 22px; fill: rgb(39, 40, 34); stroke: rgb(39, 40, 34);" transform="matrix(-1, 0, 0, -1, 342.046005, 603.446014)"/>
  <path d="M 265.786 410.638 L 290.746 410.638 L 290.746 193.038 L 265.786 193.038 L 265.786 410.638 Z" style="stroke-linecap: round; stroke-miterlimit: 1; stroke-linejoin: round; stroke-width: 22px; fill: rgb(39, 40, 34); stroke: rgb(39, 40, 34);" transform="matrix(-1, 0, 0, -1, 556.532013, 603.675995)"/>
</svg>